#!OML:ASF E:\motion texture\Top Level 1\Subject 1\Session 1\male.ASF
:FULLY-SPECIFIED
:DEGREES
603
root -34.9387 17.9297 0.275038 188.01 -77.4628 -184.073
lowerback -0.759366 -5.09556 1.77684
upperback -1.20725 -6.91486 5.21476
thorax -0.379351 -3.51496 4.32948
lowerneck -16.0195 -6.37121 -9.66095
upperneck 14.0901 -6.60187 0.676131
head 7.31304 -3.65483 1.02891
rclavicle 6.01324e-014 -7.15625e-014
rhumerus -77.1451 -54.9688 -7.82378
rradius 34.5813
rwrist -32.0171
rhand -16.9599 -64.3011
rfingers 7.12502
rthumb 9.27405 -265.923
lclavicle 6.01324e-014 -7.15625e-014
lhumerus -34.6342 11.2005 64.5136
lradius 63.0667
lwrist 3.8667
lhand -15.5621 32.1556
lfingers 7.12502
lthumb 10.6226 61.8671
rfemur -28.5883 0.861704 14.8044
rtibia 56.3087
rfoot -1.27367 -12.5327
rtoes 6.38584
lfemur -10.8387 -4.04767 -25.0583
ltibia 21.2046
lfoot -8.96406 -1.12399
ltoes 4.80144
604
root -35.0509 17.9292 0.272013 188.445 -77.7472 -184.539
lowerback -0.730664 -4.96431 1.73519
upperback -1.21675 -6.73723 5.22273
thorax -0.410528 -3.42544 4.36632
lowerneck -15.7485 -6.57783 -9.93747
upperneck 14.0867 -6.85987 0.697896
head 7.29109 -3.79377 1.05481
rclavicle -6.4605e-015 -1.27222e-014
rhumerus -74.9426 -56.3509 -10.8361
rradius 33.9527
rwrist -32.7154
rhand -16.2731 -64.2947
rfingers 7.12502
rthumb 9.93664 -265.96
lclavicle -6.4605e-015 -1.27222e-014
lhumerus -34.5853 11.1092 64.6946
lradius 61.94
lwrist 3.39308
lhand -15.4576 31.7006
lfingers 7.12502
lthumb 10.7234 61.4069
rfemur -29.0283 0.62129 14.6943
rtibia 54.9919
rfoot -1.76071 -12.7814
rtoes 6.31972
lfemur -10.3077 -4.02326 -25.2761
ltibia 21.0305
lfoot -9.19704 -1.32096
ltoes 4.71389
605
root -35.1619 17.928 0.269569 188.894 -78.0296 -185.01
lowerback -0.704709 -4.83031 1.70345
upperback -1.23192 -6.55589 5.23119
thorax -0.447593 -3.33407 4.39824
lowerneck -15.4762 -6.78376 -10.2066
upperneck 14.0836 -7.12087 0.721621
head 7.26973 -3.93362 1.08006
rclavicle 1.8487e-014 4.29375e-014
rhumerus -72.1155 -57.6483 -14.4115
rradius 33.4973
rwrist -33.5558
rhand -15.5994 -64.3143
rfingers 7.12502
rthumb 10.5866 -265.972
lclavicle 1.8487e-014 4.29375e-014
lhumerus -34.503 10.9745 64.9244
lradius 60.8469
lwrist 2.9001
lhand -15.3308 31.2274
lfingers 7.12502
lthumb 10.8457 60.9274
rfemur -29.4358 0.386926 14.5833
rtibia 53.5885
rfoot -2.212 -12.9891
rtoes 6.21071
lfemur -9.79528 -3.99325 -25.4863
ltibia 20.8658
lfoot -9.42719 -1.51203
ltoes 4.62254
606
root -35.2718 17.926 0.267594 189.362 -78.3122 -185.489
lowerback -0.68114 -4.69487 1.68006
upperback -1.252 -6.37255 5.23913
thorax -0.489739 -3.24169 4.42496
lowerneck -15.2077 -6.98878 -10.4635
upperneck 14.0809 -7.38464 0.746036
head 7.24954 -4.07404 1.10337
rclavicle -6.57977e-014 3.18055e-015
rhumerus -68.6115 -58.8075 -18.5949
rradius 33.2171
rwrist -34.5262
rhand -14.9298 -64.3422
rfingers 7.12502
rthumb 11.2325 -265.978
lclavicle -6.57977e-014 3.18055e-015
lhumerus -34.3898 10.7997 65.1964
lradius 59.7892
lwrist 2.38391
lhand -15.1877 30.7273
lfingers 7.12502
lthumb 10.9837 60.42
rfemur -29.812 0.157808 14.4714
rtibia 52.1088
rfoot -2.6292 -13.1608
rtoes 6.04551
lfemur -9.30297 -3.95939 -25.6894
ltibia 20.7126
lfoot -9.65449 -1.69852
ltoes 4.53046
607
root -35.3809 17.9234 0.266036 189.845 -78.5963 -185.974
lowerback -0.662003 -4.55968 1.66694
upperback -1.27854 -6.18954 5.24765
thorax -0.537255 -3.1495 4.4464
lowerneck -14.937 -7.19144 -10.7145
upperneck 14.0763 -7.64916 0.775226
head 7.22905 -4.21407 1.12749
rclavicle -1.12015e-013 4.29375e-014
rhumerus -64.4193 -59.7634 -23.3828
rradius 33.1102
rwrist -35.6001
rhand -14.2599 -64.3603
rfingers 7.12502
rthumb 11.8785 -265.997
lclavicle -1.12015e-013 4.29375e-014
lhumerus -34.2573 10.5879 65.5068
lradius 58.7705
lwrist 1.84613
lhand -15.03 30.2004
lfingers 7.12502
lthumb 11.1358 59.8849
rfemur -30.1566 -0.0667708 14.3599
rtibia 50.5609
rfoot -3.00647 -13.2998
rtoes 5.8526
lfemur -8.82909 -3.92471 -25.8847
ltibia 20.5692
lfoot -9.88018 -1.87904
ltoes 4.44139
608
root -35.4892 17.9202 0.264784 190.344 -78.8838 -186.462
lowerback -0.647437 -4.42534 1.66406
upperback -1.31137 -6.00766 5.25603
thorax -0.589821 -3.05789 4.46177
lowerneck -14.6706 -7.39257 -10.9545
upperneck 14.0715 -7.91529 0.807119
head 7.20969 -4.35398 1.15064
rclavicle -4.96962e-014 7.95139e-015
rhumerus -59.5774 -60.451 -28.7276
rradius 33.1765
rwrist -36.755
rhand -13.5472 -64.3468
rfingers 7.12502
rthumb 12.5656 -266.051
lclavicle -4.96962e-014 7.95139e-015
lhumerus -34.1078 10.3407 65.8502
lradius 57.7916
lwrist 1.28887
lhand -14.8573 29.6498
lfingers 7.12502
lthumb 11.3024 59.3253
rfemur -30.4722 -0.286535 14.2497
rtibia 48.9568
rfoot -3.3471 -13.4124
rtoes 5.62114
lfemur -8.37621 -3.89053 -26.0711
ltibia 20.4382
lfoot -10.1029 -2.05434
ltoes 4.3434
609
root -35.5969 17.9164 0.26375 190.87 -79.1779 -186.966
lowerback -0.63787 -4.29237 1.6705
upperback -1.3506 -5.82752 5.26301
thorax -0.647225 -2.96717 4.47024
lowerneck -14.4088 -7.59301 -11.1838
upperneck 14.0662 -8.18418 0.843633
head 7.1915 -4.49416 1.17337
rclavicle 2.08724e-014 4.13472e-014
rhumerus -54.1947 -60.8054 -34.5093
rradius 33.4142
rwrist -37.975
rhand -12.8451 -64.2956
rfingers 7.12502
rthumb 13.2425 -266.145
lclavicle 2.08724e-014 4.13472e-014
lhumerus -33.9445 10.0574 66.2232
lradius 56.8539
lwrist 0.717342
lhand -14.6731 29.0751
lfingers 7.12502
lthumb 11.48 58.7408
rfemur -30.7583 -0.504645 14.1395
rtibia 47.3064
rfoot -3.6521 -13.5046
rtoes 5.34843
lfemur -7.94383 -3.85933 -26.2507
ltibia 20.3198
lfoot -10.323 -2.22639
ltoes 4.24047
610
root -35.7041 17.9121 0.262825 191.422 -79.4796 -187.485
lowerback -0.634746 -4.16157 1.68645
upperback -1.39704 -5.65026 5.26894
thorax -0.709287 -2.87792 4.47196
lowerneck -14.1482 -7.79247 -11.4044
upperneck 14.0587 -8.45535 0.884576
head 7.1734 -4.6345 1.19607
rclavicle 2.48481e-015 1.90833e-014
rhumerus -48.444 -60.7685 -40.5443
rradius 33.8207
rwrist -39.2484
rhand -12.1976 -64.1712
rfingers 7.12502
rthumb 13.8666 -266.311
lclavicle 2.48481e-015 1.90833e-014
lhumerus -33.7752 9.74162 66.622
lradius 55.9598
lwrist 0.134284
lhand -14.4779 28.4815
lfingers 7.12502
lthumb 11.6683 58.1365
rfemur -31.0162 -0.720539 14.0302
rtibia 45.6219
rfoot -3.92114 -13.5815
rtoes 5.03873
lfemur -7.53173 -3.83237 -26.4222
ltibia 20.2139
lfoot -10.5399 -2.39597
ltoes 4.12781
611
root -35.8109 17.9074 0.261902 191.993 -79.7919 -188.009
lowerback -0.637923 -4.03475 1.71368
upperback -1.44954 -5.47838 5.27405
thorax -0.774783 -2.79146 4.46611
lowerneck -13.8957 -7.9907 -11.6129
upperneck 14.0505 -8.72796 0.929542
head 7.1568 -4.77441 1.21795
rclavicle 1.39149e-014 2.8625e-014
rhumerus -42.5621 -60.3311 -46.5805
rradius 34.3824
rwrist -40.5298
rhand -11.553 -63.96
rfingers 7.12502
rthumb 14.4877 -266.566
lclavicle 1.39149e-014 2.8625e-014
lhumerus -33.6033 9.39937 67.0402
lradius 55.1105
lwrist -0.460319
lhand -14.2686 27.8758
lfingers 7.12502
lthumb 11.8701 57.5193
rfemur -31.2464 -0.933803 13.925
rtibia 43.9139
rfoot -4.15558 -13.651
rtoes 4.70295
lfemur -7.14044 -3.81113 -26.582
ltibia 20.1219
lfoot -10.7535 -2.56485
ltoes 4.01175
612
root -35.9177 17.9025 0.260904 192.605 -80.1142 -188.564
lowerback -0.647425 -3.91116 1.74901
upperback -1.50891 -5.31077 5.27679
thorax -0.844378 -2.70718 4.4529
lowerneck -13.647 -8.18862 -11.8119
upperneck 14.0406 -9.00329 0.979486
head 7.14087 -4.9146 1.2397
rclavicle 9.74045e-015 2.22639e-014
rhumerus -36.7886 -59.5014 -52.3683
rradius 35.0886
rwrist -41.7944
rhand -10.9063 -63.6402
rfingers 7.12502
rthumb 15.1108 -266.931
lclavicle 9.74045e-015 2.22639e-014
lhumerus -33.4333 9.03058 67.4757
lradius 54.3047
lwrist -1.0656
lhand -14.0601 27.2484
lfingers 7.12502
lthumb 12.0712 56.8802
rfemur -31.4482 -1.14482 13.8197
rtibia 42.1932
rfoot -4.35643 -13.7168
rtoes 4.35231
lfemur -6.76699 -3.79653 -26.7346
ltibia 20.0422
lfoot -10.9625 -2.73447
ltoes 3.8921
613
root -36.0243 17.8973 0.2597 193.255 -80.4477 -189.145
lowerback -0.665698 -3.79159 1.79307
upperback -1.5732 -5.14867 5.2768
thorax -0.914606 -2.62577 4.43134
lowerneck -13.4075 -8.38594 -11.9978
upperneck 14.0284 -9.28067 1.03445
head 7.12611 -5.05444 1.26067
rclavicle 5.1684e-015 3.18055e-014
rhumerus -31.3053 -58.3251 -57.7168
rradius 35.9186
rwrist -43.0059
rhand -10.2903 -63.1949
rfingers 7.12502
rthumb 15.704 -267.422
lclavicle 5.1684e-015 3.18055e-014
lhumerus -33.2657 8.64226 67.9232
lradius 53.5415
lwrist -1.68364
lhand -13.8548 26.6061
lfingers 7.12502
lthumb 12.2691 56.2262
rfemur -31.6245 -1.35207 13.7166
rtibia 40.4717
rfoot -4.52648 -13.785
rtoes 3.98191
lfemur -6.41442 -3.78764 -26.8769
ltibia 19.9776
lfoot -11.1673 -2.90792
ltoes 3.76916
